<svg xmlns="http://www.w3.org/2000/svg" width="1039" height="1039" preserveAspectRatio="none" style="display:block" viewBox="0 0 2048 2048"><path fill="#F6F4F3" d="m1230 829 11-39 25-92 46-172 21-81c3-9-1-25 0-30 5-21 15-68 23-87q8-19 27-27c27-12 61 0 72 28 10 25-2 55-8 79l-10 35c-5 10-17 19-19 28q-12 38-21 77l-26 95-35 135-17 60v7c3 6 12 19 14 25 3 24-12 57-17 81q21 6 35 23c8 11 15 14 26 20 39 22 36 61 33 97 7 14 21 27 30 39 54 73 47 173 42 259-4 64-14 139-61 186-29 28-69 46-106 59q-19 3-36 10c-6 32-6 61-36 82-26 18-60 12-86-1-27-15-20-18-54-14-39 30-102 70-144 19-11-13-16-34-19-50-95 2-208 3-280-65-85-81-84-212-79-321q-3-14-10-26c-19-41-8-80 18-114 20-27 26-77 29-108l-1-1c-3-6-13-18-14-24-2-31 4-62 0-93-2-18 8-30 19-43l1-50 6-164 4-146 2-56c0-13-8-21-9-31q-2-38 0-77 0-18 9-34l2-3c21-25 52-31 79-9 16 12 19 32 20 50 0 25 2 56-3 80-2 12-11 19-11 33l-6 187-6 207c5 6 15 16 18 23 5 11 7 33 8 45 1 8-1 30 2 36 3 0 27-12 32-15l13-10c-22-61 42-106 96-78 36 20 56 58 68 96 3 9 7 32 10 38 5 2 75-4 87-5 5-48 20-107 59-140q23-19 53-17c20 2 31 13 43 27 7-23 10-29 31-43"/><path fill="#010101" d="M1146 884q8 0 15 4c21 20-13 56-17 78-7 33-8 45-2 76l10 1q3-14 10-26c19-33 42-57 83-34l10-4c-9-3-37-10-37-22l2-1c9 2 40 10 47 17 8 7-6 15-12 18l11 12q10-11 25-15 13-3 24 5c12 8 14 20 16 32 51-5 48 45 34 78 34 28 71 86 76 130 9 77 6 163-9 239-19 97-108 123-193 139 1 22 1 61-13 78-22 25-68-9-84-24-15 8-35 10-50 2l-2 2c-17 21-49 44-77 46-34 4-35-52-36-75-46 3-102 3-148-1-56-6-106-17-147-58-48-49-57-114-62-179l-2-55q3-35 4-71a88 88 0 0 1-21-44q-2-14 4-27c6-18 23-34 31-54 7-15 8-37 17-48 0-15 1-37 4-52 3-14 15-21 27-27-13-2-31-1-42-9v-3c7-5 29-1 37-1 7 1 18 2 19 10-5 14-18 17-25 23-8 7-9 47-9 59 11 6 9 13 9 24l22-17c-10-18-4-56 16-65q15-6 28-1c3-27 22-46 51-37 10-30 36-32 58-14q-1-16-7-29c-6-11-25-22-23-36 6-37 47-22 63-3 27 33 40 84 38 125 57-3 108-8 165-9-7-41 14-144 62-157"/><path fill="#F6F4F3" d="M729 1149c68-49 166-52 246-57 106-9 214-11 319 13 39 9 82 17 107 54 48 70 35 169 31 248-3 48-19 128-66 149-40 27-80 37-127 45q0-13-4-26-3-14-14-20c-22-9-51 16-65 27l-18 19c-12-6-21-1-35-1q-8 0-13 6l-19-15c-27-19-76-48-89 2q-4 19-5 38-92 8-181-6c-78-12-137-63-154-141-14-64-19-167-6-232 27 15 38-19 46-39 11-26 23-48 47-64"/><path fill="#C9CACD" d="M729 1149v2c-7 18-20 38-24 57-16 89-19 189 15 274 17 44 54 72 97 89 42 15 119 21 165 22q-4 19-5 38-92 8-181-6c-78-12-137-63-154-141-14-64-19-167-6-232 27 15 38-19 46-39 11-26 23-48 47-64m506 426c13-1 33-2 45-5 24-5 62-16 86-14-40 27-80 37-127 45q0-13-4-26m-164 16 85-9-18 19c-12-6-21-1-35-1q-8 0-13 6z"/><path fill="#010101" d="M915 1252c23-4 60 4 79 18 33 22 52 58 60 96l67-7c23-1 41-4 64-3q3-18 11-33c38-76 145-76 173 7 11 36 5 89-24 116-33 31-74 43-115 22-26-16-36-41-45-69-24-2-51 2-75 2-21 1-37-1-58 2-7 46-25 81-64 108-81 55-182 7-193-90-4-44 1-81 29-117 22-28 55-47 91-52"/><path fill="#373737" d="M923 1261c23-3 50 4 70 18 28 19 45 57 51 89 5 31-9 81-28 106-24 30-47 43-85 49-29 2-55-2-79-20-26-20-41-50-45-81-11-82 30-149 116-161"/><path fill="#010101" d="M922 1271h1q40-3 71 23c55 45 58 129 13 182q-30 35-76 40c-61 7-110-46-115-105-5-65 38-134 106-140"/><path fill="#A8BACC" d="M927 1444c23-2 25 6 44 8 18 2 22-11 44-3l-15 21q-28 34-72 36c-39 4-69-18-88-50 23-13 30 0 53-1 9-1 24-9 34-11"/><path fill="#F6F4F3" d="m917 1457 4 1q2 1 1 4c-10 13-31 14-45 10q-8-2-9-8c4-6 21-1 29-2zm26-157q8-1 15 1c19 5 37 23 40 42 4 16-4 29-21 31-18-4-16-16-28-23-16-9-39-9-27-37q7-11 21-14m-51-11 1 1c-51 35-67 102-28 152-9 0-12 0-20 3l-9 5c-15-37-14-69 1-105 13-28 29-42 55-56"/><path fill="#373737" d="M989 1397c32-3 9 32-10 41-30-1-1-34 10-41"/><path fill="#F6F4F3" d="M886 1402a17 17 0 1 1 8 33 17 17 0 0 1-8-33m140 12c-1 5-4 18-7 23q0 3-4 4c-3-4 8-22 11-27"/><path fill="#A8BACC" d="m1311 1414 12 2c12 3 17 2 30 0a91 91 0 0 1-96 50q-27-7-43-31c23-14 33-2 56-4 12-1 27-13 41-17"/><path fill="#F6F4F3" d="M1313 1422c5 0 17-1 17 7q-2 4-8 6c-6 0-17 2-17-7q3-4 8-6m-30-126c36-2 65 62 22 64-15-5-12-16-21-21-12-7-31-11-20-31q7-10 19-12"/><path fill="#373737" d="m1167 1362 17 1-1 27-76 1h-19l1-22 40-3z"/><path fill="#F6F4F3" d="M1304 1281c6 0 17 6 22 9 31 20 41 61 36 96-1 5-3 17-6 22h-16c14-38 10-88-22-117zm-73 103q10-1 17 6 3 6 2 12 0 8-8 12c-19 1-29-19-11-30"/><path fill="#373737" d="m1054 1371 25 1 2 21-2 1-26 3zm263 6c7 2 10 10 9 16-1 13-10 13-19 13l-5-1c-6-7 9-24 15-28"/><path fill="#F6F4F3" d="M1198 1394c2 10 15 29 16 33h-4c-6-6-11-25-12-33"/><path fill="#010101" d="m947 1176 6 1c9 10-8 28-15 36-20 22-58 33-87 34q-8 0-11-8 5-7 14-7c29-5 59-11 78-35zm290 12c10 4 21 29 38 36q12 5 25 8c9 2 36-1 37 10-2 4-1 3-5 5q-7 2-16 2-42 0-72-31c-8-8-18-21-7-30m-114 266c15-1 42 1 43 23q0 3-3 4l-13-11q-14-6-28-3c-19 4-23 12-39 19q-1 1-3-2c-3-16 29-27 43-30"/><path fill="#C9CACD" d="M880 1062c22-3 51-4 74-5 64-5 134-10 198-5 8 30 34 21 51 3l36 6c2 26 23 28 44 22l3 11c-123-27-249-16-374-8a411 411 0 0 0-201 65l-2-39 16-9c21 15 50 24 59-9 22 13 44 7 48-20 20 15 42 17 48-12"/><path fill="#577AC5" d="M988 1617c2-34 9-54 47-37 20 9 34 21 51 35l-2 18c-13-3-28-8-40 1 3 2 32 4 40 6l2 19-8 9c-16 16-43 38-66 38-29 0-26-71-24-89"/><path fill="#4261A1" d="M988 1617c8 16 1 55 23 63 23 9 46-18 61-31-9 0-32 2-31-11l3-4c3 2 32 4 40 6l2 19-8 9c-16 16-43 38-66 38-29 0-26-71-24-89"/><path fill="#577AC5" d="M1145 1607q22-26 52-41c13-5 22-7 27 7l2 9c5 22 6 59 0 81-6 29-20 30-45 18q-19-9-34-23l3-15v-4l1-4c8-7 26-6 29-11l-2-3c-12-2-17 0-28 5q-1-10-5-19"/><path fill="#4261A1" d="M1150 1643c28 9 44 41 76 20-6 29-20 30-45 18q-19-9-34-23z"/><path fill="#7B9DE0" d="M1226 1582v17c0 5-1 14-4 18-5 0-4-10-4-14 0-9-13-32-3-35q5 0 9 5z"/><path fill="#4261A1" d="M1178 1621q8-1 10 6c-3 11-28 14-37 12h-1l1-4c8-7 26-6 29-11z"/><path fill="#C9CACD" d="M854 1000c0-24-1-37-19-55-17-17-8-35 17-30q11 3 19 12c31 27 37 85 43 123l-34 4q-7-30-26-54"/><path fill="#F6F4F3" d="M852 915q11 3 19 12h-2c-2 7 19 23 17 36-3 4-1 2-5 4-14-1-46-35-38-50q4-3 9-2"/><path fill="#C9CACD" d="M1091 1041c-2-40 4-71 20-109 6-15 43-65 48-24-2 16-15 32-20 48-8 27-11 60-3 86z"/><path fill="#F6F4F3" d="M1139 956c-31 7-1-43 7-51 2-2 11 2 13 3-2 16-15 32-20 48"/><path fill="#A8BACC" d="m709 1112 2 39c-8 10-16 16-24 29-11 19-17 51-34 66q-4 3-8 2c-18-6-10-34-7-46q17-60 71-90"/><path fill="#C9CACD" d="M746 1047c5-22 15-38 40-33l12 8q20 16 24 41c3 11 1 23-10 28-21 10-32-15-43-28-5-4-20-11-23-16"/><path fill="#A8BACC" d="M746 1047c13-2 17-4 28 5s23 25 39 25c8 0 9-8 9-14 3 11 1 23-10 28-21 10-32-15-43-28-5-4-20-11-23-16"/><path fill="#F6F4F3" d="m786 1014 12 8v1c1 5 16 24 2 25-10 0-20-20-19-29q1-3 5-5"/><path fill="#C9CACD" d="M1259 1028c11-17 29-41 51-28 6 6 18 25 10 31-10 5-15 11-23 19l-13 23-6 3c-6 2-16 4-22 0-17-9-3-36 3-48"/><path fill="#A8BACC" d="M1259 1028c4 9-3 23 8 29 10 5 22-4 30-7l-13 23-6 3c-6 2-16 4-22 0-17-9-3-36 3-48"/><path fill="#F6F4F3" d="M1310 1000c6 6 18 25 10 31q-18-5-16-24 2-4 6-7"/><path fill="#C9CACD" d="M797 1010q3-8 8-14 8-7 19-6 13 2 19 12 9 9 16 22c9 15 15 26 12 44-12 18-29 4-40-5-3-13-5-17-12-28-9-10-8-14-22-25"/><path fill="#A8BACC" d="M819 1035q7 3 12 9c14 13 20 20 40 24-12 18-29 4-40-5-3-13-5-17-12-28"/><path fill="#F6F4F3" d="m859 1024-10 5c-6 0-12-6-15-10q-8-6-8-15c4-7 10-4 17-2q9 9 16 22"/><path fill="#C9CACD" d="M1304 1057c12-19 32-33 53-18q8 9 7 21c0 15-1 23-4 37l-18-11q4-3 5-7l-1-3c-6-1-13 7-18 11-7 5-20 14-29 8-14-10-2-29 5-38"/><path fill="#A8BACC" d="M1304 1057v7c1 17 9 21 24 23-7 5-20 14-29 8-14-10-2-29 5-38"/><path fill="#F6F4F3" d="m1364 1060-6 3c-10 3-15-17-12-23q5-2 11-1 8 9 7 21"/><path fill="#C9CACD" d="M1202 985q15-7 31 1l4 2c-5 5-7 6-10 12l-8 21-2-1-2-1q-7 4-9 13c-4 12-12 25-26 29-8 3-17-1-19-11q0-17 10-32 12-21 31-33"/><path fill="#A8BACC" d="M1171 1018c0 5 0 28 10 26 6-2 18-9 24-13-4 12-12 25-26 29-8 3-17-1-19-11q0-17 10-32"/><path fill="#F6F4F3" d="M1202 985q15-7 31 1l4 2c-5 5-7 6-10 12-14-2-24 2-25-15"/><path fill="#C9CACD" d="M702 1067c6-10 9-13 20-17l4-1c22 6 48 23 50 48-10 24-42 2-54-7l-3-3c-4 1-3 0-5 3l4 7-17 9c-2-16-3-23 1-39"/><path fill="#A8BACC" d="m702 1067 17 20c-4 1-3 0-5 3l4 7-17 9c-2-16-3-23 1-39m20 23q10 1 19 5c13 4 21 3 35 2-10 24-42 2-54-7"/><path fill="#F6F4F3" d="M736 1060c13-1 30 11 15 23-10-2-35-14-15-23"/><path fill="#577AC5" d="M1100 1607c9 1 30-2 36 4 7 8 5 30 3 40q-5 11-17 11c-19 3-30 1-29-21 0-12-2-25 7-34"/><path fill="#4261A1" d="M1139 1651q-5 11-17 11c-19 3-30 1-29-21 0-12-2-25 7-34v2c2 16-2 29 12 41z"/><path fill="#F6F4F3" d="M636 1179c0 5-9 26-10 35s4 41-4 45l-2-2c-18-27-6-58 16-78"/><path fill="#A8BACC" d="m1223 1047 8-27 20 4-11 28z"/><path fill="#C9CACD" d="M1231 1020c4-10 6-19 15-25l16 13-11 16zm104 73c15 6 30 19 42 31l-9-5q-23-12-47-17z"/><path fill="#373737" d="m658 1111 4 2c3 5 1 19 1 26l-8 10-2 2c-2-3 4-33 5-40m559-91 2 1-5 17z"/><path fill="#010101" d="M678 341c17 0 20 10 19 25-1 21 3 52-1 73l-11 11c-2 21-2 46-2 67l-3 108-5 158-3 109c7 6 22 16 24 25 2 12-34 8-41 8h-8q-3 0-5-4l1-2c7-6 30-4 40-4-8-8-22-14-22-27l2-40 3-93 9-308q-4-2-7-8c-5-10-4-78 0-90q4-5 10-8"/><path fill="#373737" d="m677 350 8 1 3 3c1 14 2 74-2 83l-7 1q-4-5-4-12c1-16-3-63 2-76"/><path fill="#010101" d="M1402 336q6 0 11 3 5 2 6 7c3 11-14 76-20 85q-5 5-12 6l-12 44q-51 186-100 373c5 7 26 26 16 33-9 1-24-4-34-7-6-1-15-2-17-7 1-4 1-3 3-5 6-3 29 5 37 7l-16-19 11-40 35-132 68-250q-7-9-4-18c4-18 11-72 28-80"/><path fill="#373737" d="M1402 344c2 0 10 2 10 4-4 18-13 64-21 78q-7 1-10-5c1-9 17-69 21-77"/><path fill="#010101" d="M653 928c10 0 40-1 45 10 2 3-1 16-2 20-7 3-41 0-50-1q-2-3-2-7c6-8 38-1 45-4l1-2c-6-7-36 0-46-8-2-3-2-2-1-5q4-3 10-3m570 13 32 7c5 2 18 4 20 10-1 4-1 3-4 7-8-1-47-11-51-17q-1-4 3-7m4-15c8 0 47 10 52 15l-2 9c-10-1-46-10-52-18zm-583 37c14-1 35 0 49 1q3 0 4 3l-1 7c-10 2-47 3-52-4zm31 32c8-1 18-4 22 3 0 4 1 2-1 5-9 4-24 3-34 3q-12 2-20-3c-1-4-1-2 1-6 4-4 25-2 32-2m561-99c7-1 47 9 50 15q1 4-2 8c-6 1-44-11-49-16-1-4-1-3 1-7m3-16c11 1 46 9 51 18l-2 7c-7-1-49-14-51-18zm-593 99h27c7 0 21-3 25 4l-3 7h-39q-8 1-13-4zm586-68c9 0 43 9 49 16 1 4 0 3-2 7-8-1-44-10-49-16-1-4 0-3 2-7"/></svg>